<svg width="900" height="901" viewBox="0 0 900 901" fill="none" xmlns="http://www.w3.org/2000/svg">
<circle cx="750" cy="50" r="50" fill="white"/>
<circle cx="650" cy="150" r="50" fill="white"/>
<circle cx="750" cy="250" r="50" fill="white"/>
<circle cx="850" cy="150" r="50" fill="white"/>
<circle cx="150" cy="250" r="50" fill="white"/>
<circle cx="250" cy="150" r="50" fill="white"/>
<circle cx="750" cy="651" r="50" fill="white"/>
<circle cx="150" cy="551" r="50" fill="white"/>
<circle cx="350" cy="551" r="50" fill="white"/>
<circle cx="50" cy="350" r="50" fill="white"/>
<circle cx="150" cy="451" r="50" fill="white"/>
<circle cx="250" cy="350" r="50" fill="white"/>
<circle cx="350" cy="451" r="50" fill="white"/>
<circle cx="850" cy="551" r="50" fill="white"/>
<circle cx="150" cy="150" r="50" fill="white"/>
<circle cx="250" cy="250" r="50" fill="white"/>
<circle cx="650" cy="651" r="50" fill="white"/>
<circle cx="50" cy="551" r="50" fill="white"/>
<circle cx="850" cy="651" r="50" fill="white"/>
<circle cx="350" cy="50" r="50" fill="white"/>
<circle cx="250" cy="50" r="50" fill="white"/>
<circle cx="250" cy="551" r="50" fill="white"/>
<circle cx="450" cy="551" r="50" fill="white"/>
<circle cx="250" cy="651" r="50" fill="white"/>
<circle cx="450" cy="651" r="50" fill="white"/>
<circle cx="150" cy="651" r="50" fill="white"/>
<circle cx="350" cy="651" r="50" fill="white"/>
<circle cx="550" cy="651" r="50" fill="white"/>
<circle cx="750" cy="751" r="50" fill="white"/>
<circle cx="650" cy="751" r="50" fill="white"/>
<circle cx="550" cy="851" r="50" fill="white"/>
<circle cx="250" cy="751" r="50" fill="white"/>
<circle cx="450" cy="751" r="50" fill="white"/>
<circle cx="150" cy="751" r="50" fill="white"/>
<circle cx="350" cy="751" r="50" fill="white"/>
<circle cx="550" cy="751" r="50" fill="white"/>
<circle cx="150" cy="350" r="50" fill="white"/>
<circle cx="250" cy="451" r="50" fill="white"/>
<circle cx="50" cy="451" r="50" fill="white"/>
<circle cx="150" cy="451" r="50" fill="white"/>
<circle cx="350" cy="451" r="50" fill="white"/>
<circle cx="250" cy="451" r="50" fill="white"/>
<circle cx="50" cy="451" r="50" fill="white"/>
<circle cx="450" cy="851" r="50" fill="white"/>
<circle cx="350" cy="851" r="50" fill="white"/>
</svg>
