<svg width="1150" height="892" viewBox="0 0 1150 892" fill="none" xmlns="http://www.w3.org/2000/svg">
<circle cx="500" cy="445" r="50" fill="white"/>
<circle cx="600" cy="345" r="50" fill="white"/>
<circle cx="700" cy="445" r="50" fill="white"/>
<circle cx="600" cy="545" r="50" fill="white"/>
<circle cx="800" cy="345" r="50" fill="white"/>
<circle cx="900" cy="445" r="50" fill="white"/>
<circle cx="800" cy="545" r="50" fill="white"/>
<circle cx="1000" cy="345" r="50" fill="white"/>
<circle cx="1100" cy="445" r="50" fill="white"/>
<circle cx="1000" cy="545" r="50" fill="white"/>
<circle cx="50" cy="341" r="50" fill="white"/>
<circle cx="150" cy="241" r="50" fill="white"/>
<circle cx="250" cy="341" r="50" fill="white"/>
<circle cx="150" cy="441" r="50" fill="white"/>
<circle cx="150" cy="150" r="50" fill="white"/>
<circle cx="250" cy="742" r="50" fill="white"/>
<circle cx="450" cy="742" r="50" fill="white"/>
<circle cx="50" cy="541" r="50" fill="white"/>
<circle cx="150" cy="642" r="50" fill="white"/>
<circle cx="250" cy="541" r="50" fill="white"/>
<circle cx="350" cy="642" r="50" fill="white"/>
<circle cx="350" cy="150" r="50" fill="white"/>
<circle cx="650" cy="742" r="50" fill="white"/>
<circle cx="50" cy="241" r="50" fill="white"/>
<circle cx="150" cy="341" r="50" fill="white"/>
<circle cx="50" cy="441" r="50" fill="white"/>
<circle cx="250" cy="241" r="50" fill="white"/>
<circle cx="150" cy="742" r="50" fill="white"/>
<circle cx="250" cy="441" r="50" fill="white"/>
<circle cx="250" cy="150" r="50" fill="white"/>
<circle cx="250" cy="50" r="50" fill="white"/>
<circle cx="450" cy="50" r="50" fill="white"/>
<circle cx="350" cy="50" r="50" fill="white"/>
<circle cx="350" cy="742" r="50" fill="white"/>
<circle cx="550" cy="742" r="50" fill="white"/>
<circle cx="150" cy="541" r="50" fill="white"/>
<circle cx="250" cy="642" r="50" fill="white"/>
<circle cx="50" cy="642" r="50" fill="white"/>
<circle cx="150" cy="642" r="50" fill="white"/>
<circle cx="350" cy="642" r="50" fill="white"/>
<circle cx="250" cy="642" r="50" fill="white"/>
<circle cx="50" cy="642" r="50" fill="white"/>
<circle cx="350" cy="842" r="50" fill="white"/>
<circle cx="550" cy="842" r="50" fill="white"/>
<circle cx="450" cy="842" r="50" fill="white"/>
<circle cx="250" cy="842" r="50" fill="white"/>
</svg>
