<svg width="1100" height="795" viewBox="0 0 1100 795" fill="none" xmlns="http://www.w3.org/2000/svg">
<circle cx="350" cy="250" r="50" fill="white"/>
<circle cx="350" cy="354" r="50" fill="white"/>
<circle cx="550" cy="250" r="50" fill="white"/>
<circle cx="550" cy="354" r="50" fill="white"/>
<circle cx="250" cy="354" r="50" fill="white"/>
<circle cx="450" cy="354" r="50" fill="white"/>
<circle cx="450" cy="250" r="50" fill="white"/>
<circle cx="250" cy="454" r="50" fill="white"/>
<circle cx="350" cy="454" r="50" fill="white"/>
<circle cx="650" cy="354" r="50" fill="white"/>
<circle cx="250" cy="554" r="50" fill="white"/>
<circle cx="150" cy="745" r="50" fill="white"/>
<circle cx="750" cy="150" r="50" fill="white"/>
<circle cx="150" cy="150" r="50" fill="white"/>
<circle cx="550" cy="545" r="50" fill="white"/>
<circle cx="650" cy="645" r="50" fill="white"/>
<circle cx="550" cy="745" r="50" fill="white"/>
<circle cx="750" cy="545" r="50" fill="white"/>
<circle cx="850" cy="645" r="50" fill="white"/>
<circle cx="750" cy="745" r="50" fill="white"/>
<circle cx="950" cy="545" r="50" fill="white"/>
<circle cx="1050" cy="645" r="50" fill="white"/>
<circle cx="950" cy="745" r="50" fill="white"/>
<circle cx="450" cy="645" r="50" fill="white"/>
<circle cx="450" cy="50" r="50" fill="white"/>
<circle cx="50" cy="454" r="50" fill="white"/>
</svg>
