<svg width="700" height="806" viewBox="0 0 700 806" fill="none" xmlns="http://www.w3.org/2000/svg">
<circle cx="550" cy="550" r="50" fill="white"/>
<circle cx="550" cy="756" r="50" fill="white"/>
<circle cx="250" cy="150" r="50" fill="white"/>
<circle cx="350" cy="50" r="50" fill="white"/>
<circle cx="250" cy="350" r="50" fill="white"/>
<circle cx="350" cy="150" r="50" fill="white"/>
<circle cx="150" cy="350" r="50" fill="white"/>
<circle cx="650" cy="650" r="50" fill="white"/>
<circle cx="550" cy="650" r="50" fill="white"/>
<circle cx="550" cy="449" r="50" fill="white"/>
<circle cx="650" cy="449" r="50" fill="white"/>
<circle cx="550" cy="350" r="50" fill="white"/>
<circle cx="650" cy="550" r="50" fill="white"/>
<circle cx="450" cy="449" r="50" fill="white"/>
<circle cx="450" cy="550" r="50" fill="white"/>
<circle cx="50" cy="551" r="50" fill="white"/>
<circle cx="50" cy="450" r="50" fill="white"/>
<circle cx="150" cy="450" r="50" fill="white"/>
<circle cx="150" cy="551" r="50" fill="white"/>
<circle cx="450" cy="350" r="50" fill="white"/>
<circle cx="150" cy="250" r="50" fill="white"/>
<circle cx="250" cy="250" r="50" fill="white"/>
<circle cx="550" cy="250" r="50" fill="white"/>
<circle cx="350" cy="250" r="50" fill="white"/>
<circle cx="50" cy="651" r="50" fill="white"/>
<circle cx="150" cy="651" r="50" fill="white"/>
<circle cx="250" cy="651" r="50" fill="white"/>
<circle cx="150" cy="751" r="50" fill="white"/>
<circle cx="250" cy="751" r="50" fill="white"/>
<circle cx="350" cy="751" r="50" fill="white"/>
<circle cx="450" cy="250" r="50" fill="white"/>
</svg>
