<svg width="900" height="840" viewBox="0 0 900 840" fill="none" xmlns="http://www.w3.org/2000/svg">
<circle cx="50" cy="425" r="50" fill="white"/>
<circle cx="450" cy="50" r="50" fill="white"/>
<circle cx="450" cy="790" r="50" fill="white"/>
<circle cx="850" cy="420" r="50" fill="white"/>
<circle cx="350" cy="220" r="50" fill="white"/>
<circle cx="350" cy="320" r="50" fill="white"/>
<circle cx="250" cy="420" r="50" fill="white"/>
<circle cx="550" cy="220" r="50" fill="white"/>
<circle cx="250" cy="320" r="50" fill="white"/>
<circle cx="450" cy="420" r="50" fill="white"/>
<circle cx="450" cy="220" r="50" fill="white"/>
<circle cx="350" cy="620" r="50" fill="white"/>
<circle cx="550" cy="620" r="50" fill="white"/>
<circle cx="450" cy="620" r="50" fill="white"/>
<circle cx="450" cy="320" r="50" fill="white"/>
<circle cx="350" cy="420" r="50" fill="white"/>
<circle cx="350" cy="520" r="50" fill="white"/>
<circle cx="250" cy="520" r="50" fill="white"/>
<circle cx="650" cy="320" r="50" fill="white"/>
<circle cx="550" cy="420" r="50" fill="white"/>
<circle cx="550" cy="320" r="50" fill="white"/>
<circle cx="650" cy="420" r="50" fill="white"/>
<circle cx="650" cy="520" r="50" fill="white"/>
<circle cx="550" cy="520" r="50" fill="white"/>
<circle cx="450" cy="520" r="50" fill="white"/>
<circle cx="150" cy="150" r="50" fill="white"/>
<circle cx="150" cy="690" r="50" fill="white"/>
<circle cx="750" cy="150" r="50" fill="white"/>
<circle cx="750" cy="690" r="50" fill="white"/>
</svg>
